<?xml version="1.0" encoding="UTF-8" standalone="no"?>
<!-- Created with Inkscape (http://www.inkscape.org/) -->

<svg
   version="1.1"
   id="svg2"
   width="4000"
   height="4000"
   viewBox="0 0 4000 4000"
   sodipodi:docname="124.eps"
   xmlns:inkscape="http://www.inkscape.org/namespaces/inkscape"
   xmlns:sodipodi="http://sodipodi.sourceforge.net/DTD/sodipodi-0.dtd"
   xmlns="http://www.w3.org/2000/svg"
   xmlns:svg="http://www.w3.org/2000/svg">
  <defs
     id="defs6" />
  <sodipodi:namedview
     id="namedview4"
     pagecolor="#ffffff"
     bordercolor="#000000"
     borderopacity="0.25"
     inkscape:showpageshadow="2"
     inkscape:pageopacity="0.0"
     inkscape:pagecheckerboard="0"
     inkscape:deskcolor="#d1d1d1" />
  <g
     id="g8"
     inkscape:groupmode="layer"
     inkscape:label="ink_ext_XXXXXX"
     transform="matrix(1.3333333,0,0,-1.3333333,0,4000)">
    <g
       id="g10"
       transform="scale(0.1)">
      <path
         d="m 27970.5,8512 c 0,-43.8 -17.8,-83.3 -46.1,-111.6 -28.9,-28.4 -68.3,-46.2 -111.6,-46.2 H 2187.24 c -87.55,0 -157.77,70.2 -157.77,157.8 0,43.7 17.8,82.7 46.17,111.1 28.38,28.8 67.83,46.1 111.6,46.1 H 27812.8 c 87,0 157.7,-70.2 157.7,-157.2"
         style="fill:#4a5b6b;fill-opacity:1;fill-rule:nonzero;stroke:none"
         id="path12" />
      <path
         d="M 23524.4,27414.3 V 9129.6 c 0,-254.4 -206,-460.4 -459.8,-460.4 H 8037.69 c -253.85,0 -459.86,206 -459.86,459.9 v 18285.2 c 0,253.8 206.01,459.3 459.86,459.3 H 23065.1 c 253.8,0 459.3,-205.5 459.3,-459.3"
         style="fill:#3d84f2;fill-opacity:1;fill-rule:nonzero;stroke:none"
         id="path14" />
      <path
         d="m 8194.89,9112.2 c -95.98,0 -174.08,78.4 -174.08,174.7 v 16873.6 c 0,96 78.1,174.1 174.08,174.1 H 22907.7 c 96,0 174.1,-78.1 174.1,-174.1 V 9286.9 c 0,-96.3 -78.1,-174.7 -174.1,-174.7 H 8194.89"
         style="fill:#ffffff;fill-opacity:1;fill-rule:nonzero;stroke:none"
         id="path16" />
      <path
         d="m 22762.3,27041.6 c 0,-151.6 -123.5,-275.1 -275,-275.1 -151.5,0 -275.1,123.5 -275.1,275.1 0,152 123.6,275 275.1,275 151.5,0 275,-123 275,-275"
         style="fill:#ffffff;fill-opacity:1;fill-rule:nonzero;stroke:none"
         id="path18" />
      <path
         d="m 21793.4,27041.6 c 0,-151.6 -123.5,-275.1 -275.1,-275.1 -151.5,0 -275,123.5 -275,275.1 0,152 123.5,275 275,275 151.6,0 275.1,-123 275.1,-275"
         style="fill:#ffffff;fill-opacity:1;fill-rule:nonzero;stroke:none"
         id="path20" />
      <path
         d="m 20824.4,27041.6 c 0,-151.6 -123.5,-275.1 -275.1,-275.1 -151.5,0 -275,123.5 -275,275.1 0,152 123.5,275 275,275 151.6,0 275.1,-123 275.1,-275"
         style="fill:#ffffff;fill-opacity:1;fill-rule:nonzero;stroke:none"
         id="path22" />
      <path
         d="m 12052.2,23576.2 c 0,-879.7 -713.5,-1591.8 -1593.2,-1591.8 -879.71,0 -1591.86,712.1 -1591.86,1591.8 0,879.7 712.15,1593.2 1591.86,1593.2 879.7,0 1593.2,-713.5 1593.2,-1593.2"
         style="fill:#ff9a05;fill-opacity:1;fill-rule:nonzero;stroke:none"
         id="path24" />
      <path
         d="m 10826.1,24109 c 0,-202.6 -164.1,-366.7 -366.7,-366.7 -202.1,0 -366.2,164.1 -366.2,366.7 0,202.5 164.1,366.6 366.2,366.6 202.6,0 366.7,-164.1 366.7,-366.6"
         style="fill:#ffffff;fill-opacity:1;fill-rule:nonzero;stroke:none"
         id="path26" />
      <path
         d="M 11266.8,22678.1 H 9652.55 c -59.56,0 -107.45,52.2 -99.47,111.2 62.01,446.4 443.92,789.6 906.92,789.6 462.3,0 844.8,-343.2 906.2,-789.6 8,-59 -39.3,-111.2 -99.4,-111.2"
         style="fill:#ffffff;fill-opacity:1;fill-rule:nonzero;stroke:none"
         id="path28" />
      <path
         d="m 22295.7,24989.2 v -2824.3 c 0,-99.6 -80.8,-180.4 -180.4,-180.4 h -9114.7 c -99.6,0 -180.4,80.8 -180.4,180.4 v 2824.3 c 0,99.6 80.8,180.4 180.4,180.4 h 9114.7 c 99.6,0 180.4,-80.8 180.4,-180.4"
         style="fill:#e7f0fd;fill-opacity:1;fill-rule:nonzero;stroke:none"
         id="path30" />
      <path
         d="m 21527.7,24542.1 c 0,31.5 -12.7,60 -33,80.8 -20.8,20.3 -49.3,33 -80.3,33 H 15716 c -62.5,0 -113.3,-50.8 -113.3,-113.8 0,-31 12.7,-59.4 33,-80.3 20.8,-20.3 49.3,-33 80.3,-33 h 5698.4 c 62.5,0 113.3,50.8 113.3,113.3"
         style="fill:#ffffff;fill-opacity:1;fill-rule:nonzero;stroke:none"
         id="path32" />
      <path
         d="m 15080.9,24542.1 c 0,31.5 -12.7,60 -33,80.8 -20.9,20.3 -49.3,33 -80.8,33 H 13702 c -63,0 -113.8,-50.8 -113.8,-113.8 0,-31 12.7,-59.4 33,-80.3 20.8,-20.3 49.3,-33 80.8,-33 h 1265.1 c 63,0 113.8,50.8 113.8,113.3"
         style="fill:#ffffff;fill-opacity:1;fill-rule:nonzero;stroke:none"
         id="path34" />
      <path
         d="m 21527.7,23898.6 c 0,31.5 -12.7,59.9 -33,80.8 -20.8,20.3 -49.3,33 -80.3,33 H 15716 c -62.5,0 -113.3,-50.8 -113.3,-113.8 0,-31 12.7,-59.5 33,-80.3 20.8,-20.3 49.3,-33 80.3,-33 h 5698.4 c 62.5,0 113.3,50.8 113.3,113.3"
         style="fill:#ffffff;fill-opacity:1;fill-rule:nonzero;stroke:none"
         id="path36" />
      <path
         d="m 15080.9,23898.6 c 0,31.5 -12.7,59.9 -33,80.8 -20.9,20.3 -49.3,33 -80.8,33 H 13702 c -63,0 -113.8,-50.8 -113.8,-113.8 0,-31 12.7,-59.5 33,-80.3 20.8,-20.3 49.3,-33 80.8,-33 h 1265.1 c 63,0 113.8,50.8 113.8,113.3"
         style="fill:#ffffff;fill-opacity:1;fill-rule:nonzero;stroke:none"
         id="path38" />
      <path
         d="m 21527.7,23255 c 0,31.5 -12.7,60 -33,80.8 -20.8,20.3 -49.3,33 -80.3,33 H 15716 c -62.5,0 -113.3,-50.8 -113.3,-113.8 0,-31 12.7,-59.4 33,-80.3 20.8,-20.3 49.3,-33 80.3,-33 h 5698.4 c 62.5,0 113.3,50.8 113.3,113.3"
         style="fill:#ffffff;fill-opacity:1;fill-rule:nonzero;stroke:none"
         id="path40" />
      <path
         d="m 15080.9,23255 c 0,31.5 -12.7,60 -33,80.8 -20.9,20.3 -49.3,33 -80.8,33 H 13702 c -63,0 -113.8,-50.8 -113.8,-113.8 0,-31 12.7,-59.4 33,-80.3 20.8,-20.3 49.3,-33 80.8,-33 h 1265.1 c 63,0 113.8,50.8 113.8,113.3"
         style="fill:#ffffff;fill-opacity:1;fill-rule:nonzero;stroke:none"
         id="path42" />
      <path
         d="m 21527.7,22611.5 c 0,31.5 -12.7,59.9 -33,80.8 -20.8,20.3 -49.3,33 -80.3,33 H 15716 c -62.5,0 -113.3,-50.8 -113.3,-113.8 0,-31 12.7,-59.5 33,-80.3 20.8,-20.3 49.3,-33 80.3,-33 h 5698.4 c 62.5,0 113.3,50.8 113.3,113.3"
         style="fill:#ffffff;fill-opacity:1;fill-rule:nonzero;stroke:none"
         id="path44" />
      <path
         d="m 15080.9,22611.5 c 0,31.5 -12.7,59.9 -33,80.8 -20.9,20.3 -49.3,33 -80.8,33 H 13702 c -63,0 -113.8,-50.8 -113.8,-113.8 0,-31 12.7,-59.5 33,-80.3 20.8,-20.3 49.3,-33 80.8,-33 h 1265.1 c 63,0 113.8,50.8 113.8,113.3"
         style="fill:#ffffff;fill-opacity:1;fill-rule:nonzero;stroke:none"
         id="path46" />
      <path
         d="m 21566.6,18699 c 0,0 -837.1,147.1 -791.4,-416 45.6,-563.1 1050.1,216.6 1050.1,216.6 l -258.7,199.4"
         style="fill:#ffd1c4;fill-opacity:1;fill-rule:nonzero;stroke:none"
         id="path48" />
      <path
         d="m 21320.8,18739.6 326.9,-552.8 c 0,0 451.7,110.8 963.1,268.5 599,184.4 1279.5,432.8 1411,642.2 137,217.9 252,482.7 345.8,742.1 197.8,546.6 299.5,1068.3 299.5,1068.3 l -493.7,512.6 c 0,0 -670.2,-323.3 -1137.7,-1893.8 l -1714.9,-787.1"
         style="fill:#fcc800;fill-opacity:1;fill-rule:nonzero;stroke:none"
         id="path50" />
      <path
         d="m 22594.3,18480.8 c 3.7,-9.7 9.2,-18.2 16.5,-25.5 599,184.4 1279.5,432.8 1411,642.2 137,217.9 252,482.7 345.8,742.1 -37.7,206.3 -121.2,404.2 -235,580.1 -64.5,101 -139.4,195.4 -221.6,282.5 -102.2,108.3 -167.4,59.6 -216.7,-67.6 -51.7,-134 -70.6,-278.8 -76.7,-422.5 -7.9,-200.9 9.1,-403 -9.1,-603.3 -17.7,-200.8 -74.3,-406 -208.8,-555.7 -186.9,-208.8 -485.2,-272.8 -720.8,-425.6 -51.1,-33.4 -105.9,-89.4 -84.6,-146.7"
         style="fill:#e3b400;fill-opacity:1;fill-rule:nonzero;stroke:none"
         id="path52" />
      <path
         d="m 22212,20674.8 v -3189.9 c 0,-163.2 -132.6,-295.9 -295.9,-295.9 H 9189.79 c -166.55,0 -299.22,132.7 -299.22,295.9 v 3189.9 c 0,163.3 132.67,295.9 299.22,295.9 H 21916.1 c 163.3,0 295.9,-132.6 295.9,-295.9"
         style="fill:#c8e1ff;fill-opacity:1;fill-rule:nonzero;stroke:none"
         id="path54" />
      <path
         d="M 16134.3,17769.8 H 9982.21 l 1288.89,1540.5 795.8,-946.2 1516.8,1807.4 2550.6,-2401.7"
         style="fill:#ffffff;fill-opacity:1;fill-rule:nonzero;stroke:none"
         id="path56" />
      <path
         d="m 12673.9,19987.9 c 0,-227 -183.9,-411 -410.9,-411 -226.9,0 -410.9,184 -410.9,411 0,226.9 184,410.9 410.9,410.9 227,0 410.9,-184 410.9,-410.9"
         style="fill:#ffffff;fill-opacity:1;fill-rule:nonzero;stroke:none"
         id="path58" />
      <path
         d="m 21120.4,20032.1 c 0,-74.8 -61.3,-136.1 -136,-136.1 h -4013.5 c -78.2,0 -139.4,61.3 -139.4,136.1 0,78.2 61.2,139.4 139.4,139.4 h 4013.5 c 74.7,0 136,-61.2 136,-139.4"
         style="fill:#ffffff;fill-opacity:1;fill-rule:nonzero;stroke:none"
         id="path60" />
      <path
         d="m 21682.9,19398 c 0,-74.8 -61.3,-136.1 -136,-136.1 h -4576 c -78.2,0 -139.4,61.3 -139.4,136.1 0,78.2 61.2,139.4 139.4,139.4 h 4576 c 74.7,0 136,-61.2 136,-139.4"
         style="fill:#ffffff;fill-opacity:1;fill-rule:nonzero;stroke:none"
         id="path62" />
      <path
         d="m 21682.9,18763.9 c 0,-74.8 -61.3,-136.1 -136,-136.1 h -4576 c -78.2,0 -139.4,61.3 -139.4,136.1 0,78.2 61.2,139.4 139.4,139.4 h 4576 c 74.7,0 136,-61.2 136,-139.4"
         style="fill:#ffffff;fill-opacity:1;fill-rule:nonzero;stroke:none"
         id="path64" />
      <path
         d="m 21682.9,18129.8 c 0,-74.8 -61.3,-136.1 -136,-136.1 h -4576 c -78.2,0 -139.4,61.3 -139.4,136.1 0,78.2 61.2,139.4 139.4,139.4 h 4576 c 74.7,0 136,-61.2 136,-139.4"
         style="fill:#ffffff;fill-opacity:1;fill-rule:nonzero;stroke:none"
         id="path66" />
      <path
         d="m 25404.6,8780.3 c 2.1,-29.2 6.3,-54.4 10.6,-73.5 4.9,-22 24.3,-37.6 46.8,-37.6 h 1517.1 c 21.3,0 37,19.8 32.2,40.5 l -58.1,247 -177.9,756.2 c -5.5,23.5 -27.7,39.2 -51.7,36.6 l -520.5,-54.8 c -23.7,-2.4 -41.8,-21.7 -42.8,-45.5 -4.3,-98 -53.8,-345.8 -431.5,-453.6 -295.8,-84.5 -332.8,-287.4 -324.2,-415.3"
         style="fill:#fa5814;fill-opacity:1;fill-rule:nonzero;stroke:none"
         id="path68" />
      <path
         d="m 25925.6,9279.8 c 199,121.5 231.3,292 234.7,369.4 1,23.8 19.1,43.1 42.8,45.5 l 520.5,54.8 c 24,2.6 46.2,-13.1 51.7,-36.6 l 101.9,-433.1 h -951.6"
         style="fill:#e44000;fill-opacity:1;fill-rule:nonzero;stroke:none"
         id="path70" />
      <path
         d="m 22418.1,8780.3 c 2.1,-29.2 6.4,-54.4 10.7,-73.5 4.9,-22 24.2,-37.6 46.8,-37.6 h 1517 c 21.4,0 37,19.8 32.2,40.5 l -58,247 -178,756.2 c -5.5,23.5 -27.6,39.2 -51.6,36.6 l -520.6,-54.8 c -23.6,-2.4 -41.7,-21.7 -42.8,-45.5 -4.3,-98 -53.8,-345.8 -431.5,-453.6 -295.8,-84.5 -332.8,-287.4 -324.2,-415.3"
         style="fill:#fa5814;fill-opacity:1;fill-rule:nonzero;stroke:none"
         id="path72" />
      <path
         d="m 22939.1,9279.8 c 199,121.5 231.3,292 234.7,369.4 1.1,23.8 19.2,43.1 42.8,45.5 l 520.6,54.8 c 24,2.6 46.1,-13.1 51.6,-36.6 l 101.9,-433.1 h -951.6"
         style="fill:#e44000;fill-opacity:1;fill-rule:nonzero;stroke:none"
         id="path74" />
      <path
         d="m 23571.6,17296.4 c 0,0 -655.1,-3040.7 -584.6,-4262.9 70.5,-1222.1 -517.1,-3525.4 -517.1,-3525.4 h 2304.4 c 629.2,1279.7 139.2,2593.3 45.7,3364.7 -184,1517.2 529,2099.7 529,2099.7 l -470,3243.4 -1307.4,-919.5"
         style="fill:#191937;fill-opacity:1;fill-rule:nonzero;stroke:none"
         id="path76" />
      <path
         d="m 26582.9,17296.4 c 0,0 522.4,-1275.9 183.9,-4063.1 -79.6,-655.2 1624.8,-2346.5 1104.9,-3725.2 h -2546.2 c 91.1,791.8 -418.3,3626.3 -571.3,4479.5 -166.2,927.3 -556.8,2900.4 19,3405.7 l 1809.7,-96.9"
         style="fill:#292561;fill-opacity:1;fill-rule:nonzero;stroke:none"
         id="path78" />
      <path
         d="m 23572,17296.2 c 0,-100.4 1820.7,-122.9 2630.3,-66.9 232,15.8 380.5,38.3 380.5,66.9 0,0 -216.1,1205.3 -197.2,1615.6 23.1,502.2 208.8,1656.4 71.2,2146.5 -21.9,77.3 -51.7,138.1 -91.3,177.1 -408.5,401.8 -1941.9,633.7 -2485.5,-61.5 -253.3,-323.8 -138.2,-1499.9 -147.3,-2480 0,-9.1 -1.9,-32.9 -5.5,-67.6 -15.8,-166.8 -65.8,-587.4 -104.1,-911.9 -28.6,-234.3 -51.1,-418.2 -51.1,-418.2"
         style="fill:#fcc800;fill-opacity:1;fill-rule:nonzero;stroke:none"
         id="path80" />
      <path
         d="m 23623.1,17714.4 c 62.7,-70 143.1,-122.9 233.8,-149.1 166.8,-48.1 343.9,-8.5 512.5,31.6 388.4,92 777.4,183.9 1165.8,275.8 90.7,21.9 183.2,43.2 276.3,38.4 93.2,-5.5 189.3,-41.4 245.4,-116.3 94.3,-125.4 48.7,-305 91.9,-455.4 11.5,-40.1 29.8,-77.3 53.5,-110.1 232,15.8 380.5,38.3 380.5,66.9 0,0 -216.1,1205.3 -197.2,1615.6 23.1,502.2 208.8,1656.4 71.2,2146.5 -36.5,18.8 -74.3,37.7 -113.2,56 -114.5,53.5 -201.5,112 -333,88.2 -144.9,-26.1 -283.1,-102.8 -397.5,-193.5 -132.7,-104.7 -242.9,-238.1 -325.1,-385.4 -188.1,-334.8 -252.6,-721.9 -336,-1096.9 -38.4,-172.9 -86.5,-354.3 -211.9,-480.3 -216.7,-217.4 -574,-190.6 -852.2,-319 -57.2,-26.2 -111.4,-60.9 -160.7,-101.1 -15.8,-166.8 -65.8,-587.4 -104.1,-911.9"
         style="fill:#e3b400;fill-opacity:1;fill-rule:nonzero;stroke:none"
         id="path82" />
      <path
         d="m 24875.9,21514.6 -32.6,431 c 0,0 -527.2,-120.7 -590.5,44 -80.8,210 -348.2,1189.9 277.6,1383.8 625.7,193.9 1019.6,-384.9 971.1,-662.5 -48.4,-277.6 19.6,-1131.4 19.6,-1131.4 11.6,-64.7 -633.7,-129.6 -645.2,-64.9"
         style="fill:#ffd1c4;fill-opacity:1;fill-rule:nonzero;stroke:none"
         id="path84" />
      <path
         d="m 25483.4,22017.6 c 0,0 -227.4,-58.8 -236.2,246.7 -8.8,305.6 287.9,593.5 47,646.3 -240.9,52.9 -138.1,-305.5 -226.2,-261.4 -88.1,44.1 -23.5,376 -88.1,446.5 -64.7,70.5 -1184,-293.8 -1204.5,276.2 -20.6,570 417.1,937.2 746.2,619.9 329,-317.3 496.5,44.1 649.2,-226.2 152.8,-270.3 420.1,188 578.8,-264.4 158.6,-452.5 -51.8,-1417.3 -266.2,-1483.6"
         style="fill:#7c3a3a;fill-opacity:1;fill-rule:nonzero;stroke:none"
         id="path86" />
      <path
         d="m 23044,17689.5 c 0,0 -905.5,232.1 -764.7,-452.8 140.8,-684.8 1042.5,156.6 1042.5,156.6"
         style="fill:#ffd1c4;fill-opacity:1;fill-rule:nonzero;stroke:none"
         id="path88" />
      <path
         d="m 22960.3,17818.8 380.5,-619.4 2370.9,1242.5 c 46.9,22.5 86.4,56.6 115.7,99.8 169.2,250.8 720.1,1177.7 720.7,1760.3 0.6,811.5 -182.6,933.4 -182.6,933.4 -826.7,0 -1363.6,-2161 -1363.6,-2161 l -2041.6,-1255.6"
         style="fill:#fcc800;fill-opacity:1;fill-rule:nonzero;stroke:none"
         id="path90" />
      <path
         d="m 24843.3,21945.6 c 0,0 182,36.5 338,202 0,0 -143.1,-316.4 -323.6,-392.7 l -14.4,190.7"
         style="fill:#f1c0ba;fill-opacity:1;fill-rule:nonzero;stroke:none"
         id="path92" />
      <path
         d="m 13442.6,16039.1 v -3182.5 c 0,-149.9 -121.4,-271.3 -271.3,-271.3 H 9162.18 c -149.89,0 -271.82,121.4 -271.82,271.3 v 3182.5 c 0,150.4 121.93,271.8 271.82,271.8 h 4009.12 c 149.9,0 271.3,-121.4 271.3,-271.8"
         style="fill:#48dbc5;fill-opacity:1;fill-rule:nonzero;stroke:none"
         id="path94" />
      <path
         d="M 22212,15900.4 H 13912.6 V 16096 H 22212 v -195.6"
         style="fill:#e7f0fd;fill-opacity:1;fill-rule:nonzero;stroke:none"
         id="path96" />
      <path
         d="M 22212,15083.4 H 13912.6 V 15279 H 22212 v -195.6"
         style="fill:#e7f0fd;fill-opacity:1;fill-rule:nonzero;stroke:none"
         id="path98" />
      <path
         d="M 22212,14266.4 H 13912.6 V 14462 H 22212 v -195.6"
         style="fill:#e7f0fd;fill-opacity:1;fill-rule:nonzero;stroke:none"
         id="path100" />
      <path
         d="M 22212,13449.4 H 13912.6 V 13645 H 22212 v -195.6"
         style="fill:#e7f0fd;fill-opacity:1;fill-rule:nonzero;stroke:none"
         id="path102" />
      <path
         d="M 22212,12632.3 H 13912.6 V 12828 H 22212 v -195.7"
         style="fill:#e7f0fd;fill-opacity:1;fill-rule:nonzero;stroke:none"
         id="path104" />
      <path
         d="M 22212,11815.3 H 8890.57 V 12011 H 22212 v -195.7"
         style="fill:#e7f0fd;fill-opacity:1;fill-rule:nonzero;stroke:none"
         id="path106" />
      <path
         d="M 22212,10998.3 H 8890.57 v 195.6 H 22212 v -195.6"
         style="fill:#e7f0fd;fill-opacity:1;fill-rule:nonzero;stroke:none"
         id="path108" />
      <path
         d="M 22212,10181.3 H 8890.57 v 195.6 H 22212 v -195.6"
         style="fill:#e7f0fd;fill-opacity:1;fill-rule:nonzero;stroke:none"
         id="path110" />
      <path
         d="m 7115.57,8794.2 c -2.87,-41 -9.69,-75.1 -15.44,-97.3 -4.32,-16.5 -19.03,-27.7 -36.26,-27.7 H 5344.01 c -24.04,0 -41.64,22.3 -36.25,45.6 l 65.34,277.9 211.07,897.1 682.06,-71.8 c 0,0 -51.34,-403.5 484.61,-556.5 332.77,-95.1 374.41,-323.4 364.73,-467.3"
         style="fill:#292561;fill-opacity:1;fill-rule:nonzero;stroke:none"
         id="path112" />
      <path
         d="M 6465.04,9400.6 C 6236.5,9580.3 6266.23,9818 6266.23,9818 l -682.06,71.8 -115.09,-489.2 h 995.96"
         style="fill:#191937;fill-opacity:1;fill-rule:nonzero;stroke:none"
         id="path114" />
      <path
         d="m 4649.8,8794.2 c -2.88,-41 -9.7,-75.1 -15.44,-97.3 -4.31,-16.5 -19.04,-27.7 -36.26,-27.7 H 2878.24 c -24.04,0 -41.64,22.3 -36.26,45.6 l 65.34,277.9 211.08,897.1 682.05,-71.8 c 0,0 -51.33,-403.5 484.62,-556.5 332.77,-95.1 374.41,-323.4 364.73,-467.3"
         style="fill:#292561;fill-opacity:1;fill-rule:nonzero;stroke:none"
         id="path116" />
      <path
         d="M 3999.27,9400.6 C 3770.74,9580.3 3800.45,9818 3800.45,9818 l -682.05,71.8 -115.09,-489.2 h 995.96"
         style="fill:#191937;fill-opacity:1;fill-rule:nonzero;stroke:none"
         id="path118" />
      <path
         d="M 7250.49,9702.3 H 4833.82 c -34.31,189.4 -25.34,457 10.02,753.1 3.17,25.8 6.34,51.7 10.04,78.1 42.21,315.6 112.41,656.5 192.63,964.8 1.06,4.7 2.63,10 3.69,14.7 6.33,25.4 12.67,50.7 18.48,77.1 25.32,118.2 43.27,247 54.88,385.3 15.83,188.9 20.05,394.7 14.78,612.2 -0.53,26.4 -1.58,53.3 -2.64,80.2 -10.03,284.5 -35.89,586.9 -72.3,897.8 v 0.5 c -5.28,41.1 -10.03,82.3 -15.3,123.5 -3.71,27.4 -6.87,54.9 -10.57,82.3 -45.38,342.5 -102.91,691.9 -166.24,1033.4 -5.28,27.4 -10.03,54.9 -15.84,82.3 -68.08,362.1 -143.02,713.6 -216.38,1038.2 -6.34,27.4 -12.66,54.8 -19,82.3 -92.36,402.1 -182.08,758.9 -255.44,1037.6 -7.39,28 -14.25,54.9 -21.64,81.3 -88.15,333 -146.73,534.1 -146.73,534.1 l 1204.38,66 980.61,53.3 c 0,0 61.22,-363.7 152,-942.7 3.69,-26.3 7.91,-52.7 12.13,-80.2 45.92,-293.9 98.16,-638.6 153.58,-1015.4 3.7,-26.4 7.4,-52.8 11.62,-79.7 45.91,-318.2 93.94,-658.7 141.44,-1010.7 3.69,-26.4 7.39,-52.8 10.56,-79.2 44.33,-328.2 88.13,-665.5 129.3,-1004.3 3.17,-26.4 6.33,-52.3 9.51,-78.6 40.63,-335.7 78.63,-671.9 112.41,-1000.7 3.16,-26.4 5.8,-52.3 8.45,-78.6 34.82,-344.1 65.44,-679.8 88.66,-997.5 2.11,-26.4 4.22,-52.8 5.8,-79.2 25.87,-363.1 42.75,-701.4 46.97,-1000.7 0.53,-26.9 1.06,-53.8 1.06,-80.2 2.11,-204.8 -2.64,-390 -14.25,-550.4"
         style="fill:#464ae4;fill-opacity:1;fill-rule:nonzero;stroke:none"
         id="path120" />
      <path
         d="m 5493.54,13733.9 c -31.15,-339.9 -15.32,-684 -68.62,-1021.2 -41.69,-265 -133,-533.1 -301.36,-737.3 15.83,188.9 20.05,394.7 14.78,612.2 -0.53,26.4 -1.58,53.3 -2.64,80.2 -10.03,284.5 -35.89,586.9 -72.3,897.8 v 0.5 c 141.44,689.3 191.58,1372.7 214.27,2075.7 10.03,324.1 20.05,647.6 30.61,971.6 7.39,244.4 -29.55,769.5 -49.61,1013.4 301.89,-403.8 539.91,-1179.1 563.14,-1682.6 33.78,-745.7 -260.2,-1467.2 -328.27,-2210.3"
         style="fill:#2624bd;fill-opacity:1;fill-rule:nonzero;stroke:none"
         id="path122" />
      <path
         d="m 5323.58,14735.1 c -8.96,1.6 -18.46,3.2 -27.43,4.2 5.28,26.4 10.55,52.3 15.82,77.6 7.92,-1.1 15.84,-2.6 23.76,-3.7 364.16,-58 740.99,-118.2 1118.88,-147.2 144.61,-11.1 276.55,-15.9 397.41,-14.3 3.69,-26.4 7.39,-52.8 10.56,-79.2 -126.14,-1.5 -263.36,3.2 -414.31,14.8 -380.53,29 -758.93,89.2 -1124.69,147.8"
         style="fill:#2624bd;fill-opacity:1;fill-rule:nonzero;stroke:none"
         id="path124" />
      <path
         d="m 5451.84,16891.6 c -1.06,26.9 -2.11,54.3 -3.17,80.7 328.81,-52.2 667.1,-103.4 1005.94,-129.3 26.91,-2.1 52.78,-3.7 78.64,-5.3 3.69,-26.3 7.91,-52.7 12.13,-80.2 -31.66,2.1 -63.86,4.2 -97.11,6.9 -336.18,25.9 -670.79,75.5 -996.43,127.2"
         style="fill:#2624bd;fill-opacity:1;fill-rule:nonzero;stroke:none"
         id="path126" />
      <path
         d="m 6448.27,15675.6 c -337.77,25.8 -673.44,76.5 -1000.13,128.2 1.59,26.4 2.64,53.3 3.7,79.7 327.74,-51.7 665,-102.9 1002.77,-128.7 86.02,-6.9 167.3,-11.1 244.35,-12.7 3.7,-26.4 7.4,-52.8 11.62,-79.7 -82.87,1.6 -169.95,6.3 -262.31,13.2"
         style="fill:#2624bd;fill-opacity:1;fill-rule:nonzero;stroke:none"
         id="path128" />
      <path
         d="m 5323.58,13646.8 c -79.16,12.7 -157.8,25.4 -236.96,37 5.27,26.4 10.55,52.2 15.3,78.1 78.12,-12.2 155.7,-24.3 233.81,-37 364.16,-58 740.99,-118.2 1118.88,-147.2 202.67,-15.3 379.47,-19 537.27,-9.5 3.17,-26.4 6.33,-52.3 9.51,-78.6 -163.09,-10.1 -344.65,-6.9 -553.12,8.9 -380.53,29 -758.93,89.7 -1124.69,148.3"
         style="fill:#2624bd;fill-opacity:1;fill-rule:nonzero;stroke:none"
         id="path130" />
      <path
         d="m 7122.25,12410.3 c -193.18,-20.1 -412.73,-20.1 -673.98,0 -380.53,29 -758.93,89.2 -1124.69,147.7 -61.74,10.1 -123.49,19.6 -185.24,29.6 -0.53,26.4 -1.58,53.3 -2.64,80.2 67.03,-10.5 133.53,-21.1 200.56,-31.7 364.16,-58 740.46,-118.2 1118.35,-147.2 256.49,-19.5 471.3,-20.1 659.19,0 3.16,-26.4 5.8,-52.3 8.45,-78.6"
         style="fill:#2624bd;fill-opacity:1;fill-rule:nonzero;stroke:none"
         id="path132" />
      <path
         d="m 7216.71,11333.6 c -215.32,-31.7 -463.91,-35.4 -768.44,-12.1 -380.53,29 -758.93,89.7 -1124.69,148.3 -91.29,14.7 -182.07,29 -273.38,43.2 6.33,25.4 12.67,50.7 18.48,77.1 89.19,-13.7 178.38,-28 267.58,-42.2 364.16,-58.1 740.46,-118.2 1118.35,-147.3 301.88,-23.2 545.71,-19.5 756.3,12.2 2.11,-26.4 4.22,-52.8 5.8,-79.2"
         style="fill:#2624bd;fill-opacity:1;fill-rule:nonzero;stroke:none"
         id="path134" />
      <path
         d="m 7264.74,10252.7 c -226.42,-38.5 -488.72,-44.3 -816.47,-19.5 -380.53,29 -758.93,89.2 -1124.69,147.8 -155.15,24.8 -309.79,49.6 -465.48,72.3 -4.76,0.5 -9.51,1.6 -14.26,2.1 3.17,25.8 6.34,51.7 10.04,78.1 5.27,-0.5 10.54,-1.6 15.83,-2.1 155.69,-22.7 310.86,-47.5 466.55,-72.3 364.16,-58.1 740.46,-118.2 1118.35,-147.3 327.22,-25.3 586.36,-18.4 809.07,21.1 0.53,-26.9 1.06,-53.8 1.06,-80.2"
         style="fill:#2624bd;fill-opacity:1;fill-rule:nonzero;stroke:none"
         id="path136" />
      <path
         d="m 5451.84,15883.5 c -1.06,-26.4 -2.11,-53.3 -3.7,-79.7 -15.83,-280.2 -44.86,-546.2 -93.41,-779 -13.2,-62.2 -27.44,-131.9 -42.76,-207.9 -5.27,-25.3 -10.54,-51.2 -15.82,-77.6 -53.84,-267.6 -120.86,-604.8 -194.23,-977.4 -4.75,-25.9 -10.03,-51.7 -15.3,-78.1 -7.39,-38.6 -15.31,-78.1 -23.22,-117.7 v -0.5 c -53.84,-276.1 -110.83,-566.9 -167.83,-860.9 -5.29,-25.8 -10.56,-51.7 -15.31,-77.5 -64.92,-331.5 -129.83,-665 -192.12,-981.7 -4.74,-26.4 -10.01,-52.2 -14.76,-78.1 -70.73,-361.5 -137.23,-699.3 -193.7,-985.3 -5.28,-26.4 -10.56,-52.8 -15.3,-78.2 -85.5,-428.5 -146.72,-726.7 -165.2,-790 -1.58,-3.7 -2.64,-8 -3.69,-11.6 H 2176.47 c -42.74,115 -78.63,237.5 -104.49,368.3 -5.81,29.6 -11.08,60.2 -15.84,90.8 -46.97,305.6 -36.94,652.9 70.73,1044 11.08,40.6 23.22,81.7 36.41,123.4 82.86,257.6 207.42,533.1 384.75,827.1 55.42,91.8 116.11,240.1 179.97,431.2 10.03,29 19.53,59.6 29.55,90.7 92.89,290.8 191.58,663.4 289.23,1075.1 6.33,27.5 13.19,55.4 19.52,83.4 77.59,330.9 154.64,685 226.94,1040.2 h 0.53 c 5.28,27 10.56,53.9 16.37,81.3 70.72,348.4 137.21,696.7 196.32,1024.4 4.75,26.9 9.51,53.9 14.25,80.2 14.26,79.2 27.98,156.8 41.17,232.8 51.2,295.5 95.53,562.1 131.95,781.6 4.74,26.9 8.97,53.3 12.66,79.2 54.89,331.4 86.56,536.2 86.56,536.2 l 1508.38,969.5 c 0,0 53.82,-387.4 99.21,-934.6 19,-229.1 36.42,-486.1 48.03,-754.8 1.06,-26.4 2.11,-53.8 3.17,-80.7 12.66,-332 15.84,-678.2 0,-1008.1"
         style="fill:#464ae4;fill-opacity:1;fill-rule:nonzero;stroke:none"
         id="path138" />
      <path
         d="m 5451.84,16891.6 -128.26,20.6 c -155.15,24.8 -309.79,49.6 -465.48,72.3 -150.95,21.6 -317.2,43.8 -493.47,61.2 -213.22,20.6 -440.69,33.8 -670.8,31.1 4.74,26.9 8.97,53.3 12.66,79.2 218.5,2.1 433.83,-10 636.5,-29 188.42,-17.4 366.27,-41.2 526.72,-64.4 155.69,-22.7 310.86,-47.5 466.02,-72.3 37.47,-5.8 74.94,-12.2 112.94,-18 1.06,-26.4 2.11,-53.8 3.17,-80.7"
         style="fill:#2624bd;fill-opacity:1;fill-rule:nonzero;stroke:none"
         id="path140" />
      <path
         d="m 5451.84,15883.5 c -1.06,-26.4 -2.11,-53.3 -3.7,-79.7 -41.69,6.9 -83.38,13.2 -124.56,20.1 -155.15,24.8 -309.79,49.1 -465.48,71.8 -69.67,10 -143.03,20 -219.03,30.1 -340.42,43.2 -736.78,77 -1132.61,56.4 4.75,26.9 9.51,53.9 14.25,80.2 384.23,18.5 766.86,-13.2 1099.36,-54.3 87.08,-10.6 170.47,-22.2 249.64,-33.8 155.69,-22.7 310.86,-47.5 466.02,-72.3 38.53,-6.3 77.05,-12.1 116.11,-18.5"
         style="fill:#2624bd;fill-opacity:1;fill-rule:nonzero;stroke:none"
         id="path142" />
      <path
         d="m 5311.97,14816.9 c -5.27,-25.3 -10.54,-51.2 -15.82,-77.6 -141.44,22.7 -282.89,45.4 -424.86,66 -4.22,1 -8.98,1.6 -13.19,2.1 -439.12,63.3 -1011.75,128.8 -1564.33,69.1 5.28,27 10.56,53.9 16.37,81.3 547.83,55.4 1109.9,-7.4 1545.31,-70.2 4.76,-0.5 9.5,-1.6 14.26,-2.1 147.77,-21.6 295.02,-44.8 442.26,-68.6"
         style="fill:#2624bd;fill-opacity:1;fill-rule:nonzero;stroke:none"
         id="path144" />
      <path
         d="m 5101.92,13761.9 c -4.75,-25.9 -10.03,-51.7 -15.3,-78.1 -12.66,2.6 -25.33,4.2 -38.52,5.8 -63.34,10 -126.67,19.5 -190,29 -448.62,64.9 -1036.02,131.4 -1599.69,66 -72.3,-8.5 -143.02,-19 -211.63,-31.7 6.33,27.5 13.19,55.4 19.52,83.4 59.64,11.1 120.86,19.5 182.62,26.9 573.16,66.5 1167.43,-0.5 1620.79,-66 55.93,-7.9 111.88,-16.3 167.82,-25.3 21.65,-3.2 42.75,-6.3 64.39,-10"
         style="fill:#2624bd;fill-opacity:1;fill-rule:nonzero;stroke:none"
         id="path146" />
      <path
         d="m 4895.57,12704.7 c -5.29,-25.8 -10.56,-51.7 -15.31,-77.5 -7.39,1 -14.78,2.1 -22.16,3.1 -448.62,65 -1036.02,130.9 -1599.69,65.5 -188.95,-21.7 -367.33,-58.6 -530.41,-108.7 10.03,29 19.53,59.6 29.55,90.7 153.06,43.8 318.25,76 491.37,96.6 573.16,66.5 1167.43,0 1620.79,-66 8.44,-1 17.41,-2.6 25.86,-3.7"
         style="fill:#2624bd;fill-opacity:1;fill-rule:nonzero;stroke:none"
         id="path148" />
      <path
         d="m 4688.14,11645.5 c -4.74,-26.4 -10.01,-52.2 -14.76,-78.1 -419.06,54.4 -925.72,97.1 -1414.97,40.1 -468.14,-54.9 -873.46,-200.5 -1131.54,-402.1 11.08,40.6 23.22,81.7 36.41,123.4 269.17,178.4 652.33,306.7 1085.64,357.4 499.26,58 1014.9,14.2 1439.22,-40.7"
         style="fill:#2624bd;fill-opacity:1;fill-rule:nonzero;stroke:none"
         id="path150" />
      <path
         d="m 4479.68,10582.1 c -5.28,-26.4 -10.56,-52.8 -15.3,-78.2 -372.61,40.7 -795.36,62.8 -1205.97,14.8 -502.97,-58 -933.1,-222.7 -1186.43,-448.1 -5.81,29.6 -11.08,60.2 -15.84,90.8 269.7,219.6 698.77,378.4 1192.78,436 420.1,48.5 851.81,25.8 1230.76,-15.3"
         style="fill:#2624bd;fill-opacity:1;fill-rule:nonzero;stroke:none"
         id="path152" />
      <path
         d="m 6039.42,19098.2 c 0,0 442.11,-616.9 894.57,-790.6 117.61,-44.6 235.76,-59.9 346.83,-26.7 540.12,160.6 749.74,1806 749.74,1806 l -303.81,156.3 -560.28,-785.1 c -468.24,1508.2 -918.51,1597.5 -918.51,1597.5 l -59.89,-562.5 -148.65,-1394.9"
         style="fill:#44922b;fill-opacity:1;fill-rule:nonzero;stroke:none"
         id="path154" />
      <path
         d="m 6039.42,19098.2 c 0,0 442.11,-616.9 894.57,-790.6 44.64,58.8 68.61,130.7 52.27,202 -29.39,128.5 -167.16,196.6 -251.01,298.4 -84.38,102.3 -113.24,240.1 -112.7,372.4 1.09,132.3 28.87,262.4 46.28,393.7 17.97,132.8 25.05,266.7 20.69,400.7 -6.53,235.7 -41.38,483.5 -122.5,706.2 -27.77,76.7 -90.39,143.7 -178.58,109.4 -92.02,-34.8 -143.21,-157.3 -178.05,-241.2 -7.63,-18.5 -15.24,-37.6 -22.32,-56.1 l -148.65,-1394.9"
         style="fill:#327f17;fill-opacity:1;fill-rule:nonzero;stroke:none"
         id="path156" />
      <path
         d="m 3713.44,17437 c 0,-157.9 781.86,-231.4 1515.27,-222.1 92,1 183.49,3.2 272.23,7 251,10.9 482.95,32.1 658.82,64.3 201.45,36.5 329.39,87.1 329.39,150.8 -92.56,953.9 402.92,2843.8 -77.3,3509.1 -207.46,287 -1819.63,396.4 -2394.05,32.2 -3.27,-1.7 -6.54,-3.9 -9.8,-6 -19.05,-12.6 -37.03,-25.6 -53.36,-39.2 -46.28,-38.2 -86.57,-92.6 -121.42,-161.8 -396.37,-778 -119.78,-3334.3 -119.78,-3334.3"
         style="fill:#44922b;fill-opacity:1;fill-rule:nonzero;stroke:none"
         id="path158" />
      <path
         d="m 3713.44,17437 c 0,-157.9 781.86,-231.4 1515.27,-222.1 92,1 183.49,3.2 272.23,7 251,10.9 482.95,32.1 658.82,64.3 -27.23,38.6 -70.24,70.2 -113.8,89.8 -75.69,33.8 -160.07,47.9 -228.14,95.3 -103.44,72.4 -145.38,205.3 -163.87,330.5 -19.07,124.7 -23.42,255.9 -80.05,368.6 -90.38,179.7 -292.92,274.4 -489.48,314.2 -196.56,39.7 -401.28,38.6 -594.57,91.4 -150.27,41.4 -304.35,129.6 -352.82,277.7 -56.62,172.1 46.29,350.6 121.96,515.1 216.7,467.7 228.15,1024.7 36.49,1502.7 -130.68,-91.4 -301.63,-88.7 -462.26,-100.2 -396.37,-778 -119.78,-3334.3 -119.78,-3334.3"
         style="fill:#327f17;fill-opacity:1;fill-rule:nonzero;stroke:none"
         id="path160" />
      <path
         d="m 4789.47,21650.3 26.79,-456.9 c 0,-138.4 745.46,-137.7 745.46,0.7 l 1.2,369.3 c 0,0 313.17,-78 476.56,83.7 118.3,117.1 255.04,1543 -377.22,1658.5 -794.65,145 -1251,-386.2 -1298.14,-600.5 -46.61,-214.3 425.35,-1054.8 425.35,-1054.8"
         style="fill:#ffd1c4;fill-opacity:1;fill-rule:nonzero;stroke:none"
         id="path162" />
      <path
         d="m 4789.47,21650.3 c 92.15,236.2 -140.62,339.9 -241.07,507.8 -3.48,5.9 -6.43,13.7 -8.58,22.8 -12.31,48.8 -4.81,135.8 40.45,176.5 22.78,20.4 54.92,29 98.84,15 147.33,-46.8 60.01,-143.3 102.87,-167.6 52.77,-29.8 318.75,346.3 20.89,600.8 0,0 1523.58,-80.4 1540.19,562.5 16.61,642.8 -669.65,860.6 -994.29,679.5 -267.06,-148.4 -369.11,-358.4 -605.36,-461.5 -50.9,-22.5 -108.22,-39.9 -174.91,-50.6 -13.94,-2.2 -27.6,-4.6 -40.72,-7.5 -343.4,-68.3 -457.23,-270.6 -263.84,-534.9 0,0 -582.86,-277.8 525.53,-1342.8"
         style="fill:#292561;fill-opacity:1;fill-rule:nonzero;stroke:none"
         id="path164" />
      <path
         d="m 8369.94,21089.4 6.16,-8.8 2.68,9.3 z"
         style="fill:#000000;fill-opacity:1;fill-rule:nonzero;stroke:none"
         id="path166" />
      <path
         d="m 6870.28,19339.4 868.99,43.5 c 34.84,1.7 65.34,25.6 74.59,59.4 l 421.96,1472.8 c 15.25,53.9 -26.67,107.2 -82.75,105.1 l -866.25,-36 c -35.4,-1.6 -65.89,-25.6 -75.7,-59.3 l -424.14,-1481 c -15.24,-53.9 27.23,-107.2 83.3,-104.5"
         style="fill:#5b6f8b;fill-opacity:1;fill-rule:nonzero;stroke:none"
         id="path168" />
      <path
         d="m 5344.43,18307.6 c 0,0 847.79,397 814.2,-140.7 -33.59,-537.7 -896.67,-200.6 -896.67,-200.6 l 82.47,341.3"
         style="fill:#ffd1c4;fill-opacity:1;fill-rule:nonzero;stroke:none"
         id="path170" />
      <path
         d="m 4163.3,21055.8 c -890.57,-359.6 -1688.67,-2906.9 -806.86,-3170.6 442.47,-132.3 1982.14,58.7 1982.14,58.7 l 117.04,450 -1647.17,323.5 c 0,0 924.23,1801.8 354.85,2338.4"
         style="fill:#44922b;fill-opacity:1;fill-rule:nonzero;stroke:none"
         id="path172" />
      <path
         d="m 7719.48,20152.2 c -34.33,-175.3 73.2,-343.9 240.66,-376.7 166.76,-32.7 291.13,602.1 124.36,634.7 -167.46,32.8 -330.68,-82.8 -365.02,-258"
         style="fill:#ffd1c4;fill-opacity:1;fill-rule:nonzero;stroke:none"
         id="path174" />
      <path
         d="m 24667.6,26081.1 v -1140 c 0,-139.7 113.8,-253.6 253.6,-253.6 h 118.8 c 45.9,0 82.9,-36.9 82.9,-82.8 l 1.6,-188.9 c 0,-73.9 89.8,-110.8 141.7,-58.9 l 314,306.7 c 14.9,15 35.9,23.9 58.9,23.9 h 1975.2 c 139.7,0 253.5,113.9 253.5,253.6 v 1140 c 0,139.7 -113.8,253.5 -253.5,253.5 h -2693.1 c -139.8,0 -253.6,-113.8 -253.6,-253.5"
         style="fill:#a3caed;fill-opacity:1;fill-rule:nonzero;stroke:none"
         id="path176" />
      <path
         d="m 26577.6,25845.6 h -427.2 c -31,0 -56.2,25.1 -56.2,56.1 0,31.1 25.2,56.2 56.2,56.2 h 427.2 c 31,0 56.1,-25.1 56.1,-56.2 0,-31 -25.1,-56.1 -56.1,-56.1"
         style="fill:#ffffff;fill-opacity:1;fill-rule:nonzero;stroke:none"
         id="path178" />
      <path
         d="m 25925.8,25845.6 h -831.9 c -31,0 -56.1,25.1 -56.1,56.1 0,31.1 25.1,56.2 56.1,56.2 h 831.9 c 31,0 56.2,-25.1 56.2,-56.2 0,-31 -25.2,-56.1 -56.2,-56.1"
         style="fill:#ffffff;fill-opacity:1;fill-rule:nonzero;stroke:none"
         id="path180" />
      <path
         d="m 27447.4,25450.4 h -1717.1 c -31,0 -56.1,25.2 -56.1,56.2 0,31 25.1,56.2 56.1,56.2 h 1717.1 c 31,0 56.2,-25.2 56.2,-56.2 0,-31 -25.2,-56.2 -56.2,-56.2"
         style="fill:#ffffff;fill-opacity:1;fill-rule:nonzero;stroke:none"
         id="path182" />
      <path
         d="m 25472.4,25450.4 h -378.5 c -31,0 -56.1,25.2 -56.1,56.2 0,31 25.1,56.2 56.1,56.2 h 378.5 c 31.1,0 56.2,-25.2 56.2,-56.2 0,-31 -25.1,-56.2 -56.2,-56.2"
         style="fill:#ffffff;fill-opacity:1;fill-rule:nonzero;stroke:none"
         id="path184" />
      <path
         d="m 27010.7,25055.3 h -657.8 c -31,0 -56.1,25.1 -56.1,56.2 0,31 25.1,56.1 56.1,56.1 h 657.8 c 31,0 56.1,-25.1 56.1,-56.1 0,-31.1 -25.1,-56.2 -56.1,-56.2"
         style="fill:#ffffff;fill-opacity:1;fill-rule:nonzero;stroke:none"
         id="path186" />
      <path
         d="m 26007.7,25055.3 h -913.8 c -31,0 -56.1,25.1 -56.1,56.2 0,31 25.1,56.1 56.1,56.1 h 913.8 c 31.1,0 56.2,-25.1 56.2,-56.1 0,-31.1 -25.1,-56.2 -56.2,-56.2"
         style="fill:#ffffff;fill-opacity:1;fill-rule:nonzero;stroke:none"
         id="path188" />
      <path
         d="m 12145,3120 -123.7,363.7 c -28.2,82.5 -46.9,157.5 -65.7,230.6 h -3.7 c -18.8,-75 -39.4,-151.9 -63.7,-228.8 L 11764.4,3120 Z m -414.3,-127.5 -131.3,-397.4 h -168.7 l 429.3,1263.5 h 196.9 l 431.2,-1263.5 h -174.4 l -135,397.4 h -448"
         style="fill:#131514;fill-opacity:1;fill-rule:nonzero;stroke:none"
         id="path190" />
      <path
         d="m 12825.5,2958.8 c 0,-20.7 3.7,-41.3 7.5,-60 31.9,-114.4 127.5,-193.1 247.4,-193.1 172.5,0 275.6,140.6 275.6,348.7 0,181.8 -93.7,337.4 -269.9,337.4 -112.5,0 -217.5,-76.8 -251.2,-202.5 -3.8,-18.7 -9.4,-41.2 -9.4,-67.4 z m -170.6,-363.7 c 3.7,61.8 7.5,153.7 7.5,234.3 v 1096.7 h 163.1 v -569.9 h 3.7 c 58.2,101.2 163.1,166.8 309.4,166.8 224.9,0 384.3,-187.4 382.4,-463 0,-324.3 -204.3,-485.6 -406.8,-485.6 -131.2,0 -236.2,50.7 -303.7,170.6 h -5.6 l -7.5,-149.9 h -142.5"
         style="fill:#131514;fill-opacity:1;fill-rule:nonzero;stroke:none"
         id="path192" />
      <path
         d="m 13830.3,3046.9 c 0,-198.7 114.3,-348.7 275.5,-348.7 157.5,0 275.6,148.1 275.6,352.4 0,153.7 -76.8,348.7 -271.8,348.7 -195,0 -279.3,-180 -279.3,-352.4 z m 719.8,9.3 c 0,-335.5 -232.4,-481.8 -451.8,-481.8 -245.5,0 -434.9,180 -434.9,466.8 0,303.7 198.7,481.8 449.9,481.8 260.6,0 436.8,-189.3 436.8,-466.8"
         style="fill:#131514;fill-opacity:1;fill-rule:nonzero;stroke:none"
         id="path194" />
      <path
         d="m 15517.5,2842.5 c 0,-93.7 1.8,-176.2 7.5,-247.4 h -146.3 l -9.3,148.1 h -3.8 c -43.1,-73.1 -138.7,-168.8 -299.9,-168.8 -142.5,0 -313.1,78.8 -313.1,397.5 v 530.5 h 165 V 3000 c 0,-172.5 52.4,-288.7 202.4,-288.7 110.6,0 187.5,76.9 217.5,150 9.4,24.3 15,54.3 15,84.3 v 556.8 h 165 v -659.9"
         style="fill:#131514;fill-opacity:1;fill-rule:nonzero;stroke:none"
         id="path196" />
      <path
         d="m 15989.8,3763 v -260.6 h 236.3 v -125.6 h -236.3 v -489.3 c 0,-112.5 31.9,-176.2 123.8,-176.2 43.1,0 75,5.6 95.6,11.2 l 7.5,-123.7 c -31.9,-13.1 -82.5,-22.5 -146.2,-22.5 -76.9,0 -138.8,24.4 -178.1,69.4 -46.9,48.7 -63.8,129.3 -63.8,236.2 v 494.9 H 15688 v 125.6 h 140.6 v 217.5 l 161.2,43.1"
         style="fill:#131514;fill-opacity:1;fill-rule:nonzero;stroke:none"
         id="path198" />
      <path
         d="m 16977.8,3858.6 v -748 c 0,-283.1 125.6,-403.1 294.3,-403.1 187.5,0 307.4,123.8 307.4,403.1 v 748 h 165 v -736.7 c 0,-388.1 -204.3,-547.5 -478,-547.5 -258.8,0 -453.7,148.1 -453.7,540 v 744.2 h 165"
         style="fill:#131514;fill-opacity:1;fill-rule:nonzero;stroke:none"
         id="path200" />
      <path
         d="m 17988.2,2763.8 c 48.7,-31.9 134.9,-65.6 217.4,-65.6 120,0 176.3,60 176.3,135 0,78.7 -46.9,121.8 -168.8,166.8 -163.1,58.1 -239.9,148.1 -239.9,256.8 0,146.3 118.1,266.2 313,266.2 91.9,0 172.5,-26.2 223.1,-56.2 l -41.2,-120 c -35.6,22.5 -101.2,52.5 -185.6,52.5 -97.5,0 -151.9,-56.2 -151.9,-123.7 0,-75 54.4,-108.8 172.5,-153.7 157.5,-60 238.1,-138.8 238.1,-273.7 0,-159.4 -123.7,-271.9 -339.3,-271.9 -99.4,0 -191.2,24.4 -255,61.9 l 41.3,125.6"
         style="fill:#131514;fill-opacity:1;fill-rule:nonzero;stroke:none"
         id="path202" />
    </g>
  </g>
</svg>
