<?xml version="1.0" standalone="no"?>
<!DOCTYPE svg PUBLIC "-//W3C//DTD SVG 20010904//EN"
 "http://www.w3.org/TR/2001/REC-SVG-20010904/DTD/svg10.dtd">
<svg version="1.0" xmlns="http://www.w3.org/2000/svg"
 width="695.000000pt" height="279.000000pt" viewBox="0 0 695.000000 279.000000"
 preserveAspectRatio="xMidYMid meet">

<g transform="translate(0.000000,279.000000) scale(0.100000,-0.100000)"
fill="#000000" stroke="none">
<path d="M1582 1663 l3 -1118 210 0 210 0 5 525 c5 519 5 526 28 572 29 61
109 132 173 153 68 23 188 21 243 -4 62 -28 121 -103 143 -182 4 -13 8 -249
10 -524 2 -275 5 -510 8 -523 l5 -22 208 2 207 3 0 565 c0 560 0 566 -23 645
-37 128 -84 215 -155 287 -117 119 -238 168 -419 168 -111 0 -173 -13 -256
-55 -49 -24 -131 -91 -165 -132 -10 -13 -23 -23 -28 -23 -5 0 -9 157 -9 390
l0 390 -200 0 -200 0 2 -1117z"/>
<path d="M3870 2304 c-186 -23 -328 -63 -440 -126 -95 -54 -170 -108 -170
-123 0 -15 133 -249 158 -277 16 -19 57 -24 67 -9 15 25 142 103 206 126 63
22 90 30 174 50 11 3 72 8 135 11 192 10 320 -34 434 -150 141 -144 202 -366
163 -591 -50 -284 -262 -447 -562 -432 -249 12 -415 153 -415 350 0 94 32 167
104 237 25 24 46 50 46 56 0 7 -16 43 -36 81 -21 37 -50 94 -67 126 -40 78
-55 84 -111 49 -243 -154 -344 -452 -250 -738 41 -128 80 -191 179 -289 73
-74 107 -100 180 -137 91 -46 135 -63 190 -73 17 -3 59 -10 95 -16 75 -14 230
-7 343 16 85 16 218 67 244 94 9 9 17 14 18 11 1 -3 29 14 61 36 170 120 292
299 345 509 18 74 23 117 22 235 0 162 -21 272 -74 388 -16 35 -29 67 -29 71
0 20 -118 182 -173 238 -123 126 -299 223 -467 257 -76 15 -305 28 -370 20z"/>
<path d="M565 2213 c-55 -6 -169 -40 -219 -66 -95 -48 -177 -126 -227 -213
-67 -119 -65 -308 5 -428 54 -93 207 -186 391 -240 382 -112 366 -106 408
-147 30 -30 37 -44 37 -76 0 -102 -138 -165 -313 -143 -118 15 -186 59 -221
143 l-15 37 -180 0 c-99 0 -186 -3 -195 -6 -21 -8 -20 -46 3 -115 69 -205 203
-327 431 -390 69 -19 110 -23 220 -24 162 0 258 19 375 75 81 39 215 148 215
175 0 7 3 15 8 17 29 13 72 150 72 231 0 176 -84 313 -244 401 -77 42 -121 56
-330 107 -192 46 -243 67 -286 115 -24 28 -30 44 -30 80 0 85 71 124 222 124
129 0 193 -38 222 -132 5 -16 23 -18 201 -18 223 0 215 -3 195 82 -37 156
-133 278 -270 342 -44 21 -103 44 -132 52 -54 15 -270 26 -343 17z"/>
<path d="M5227 2214 c-4 -4 -7 -499 -7 -1101 l0 -1093 213 2 212 3 3 357 c1
197 5 358 8 358 3 0 31 -22 62 -49 112 -96 227 -142 376 -149 232 -11 428 63
589 222 104 102 164 208 213 371 37 124 40 326 6 457 -46 183 -141 331 -291
450 -187 150 -457 210 -661 149 -50 -16 -150 -64 -150 -73 0 -4 -6 -8 -13 -8
-7 0 -45 -30 -85 -66 -47 -43 -74 -61 -77 -52 -3 7 -6 60 -7 118 l-3 105 -191
3 c-104 1 -193 -1 -197 -4z m990 -425 c127 -47 221 -142 264 -267 29 -82 28
-217 -2 -297 -40 -110 -121 -199 -227 -251 -52 -25 -67 -28 -172 -28 -111 -1
-118 0 -182 32 -220 108 -309 367 -203 588 55 114 134 185 254 229 59 22 201
19 268 -6z"/>
</g>
</svg>
